<svg xmlns="http://www.w3.org/2000/svg"
  viewBox="0 0 20000 2790"
  role="img" aria-label="NxtGen Stack">
  <title>NxtGen Stack</title>
  <g transform="scale(1,-1) translate(0,-2790)">
    <path fill="#6C63FF" d="M7475 2641 c-609 -61 -1075 -464 -1186 -1026 -21 -108 -19 -427 4
-535 55 -254 176 -471 362 -648 176 -169 385 -278 635 -332 423 -93 938 4
1293 242 l57 39 -2 507 -3 507 -260 0 -260 0 -3 -366 -2 -366 -58 -26 c-117
-53 -222 -72 -392 -72 -184 1 -250 15 -390 83 -201 98 -358 306 -401 532 -19
103 -14 300 10 395 72 275 261 467 538 547 68 20 100 23 253 22 164 0 180 -2
260 -28 47 -16 103 -37 125 -48 63 -32 176 -113 219 -157 l39 -40 100 92 c56
51 139 129 186 175 l86 82 -80 77 c-80 76 -194 158 -291 206 -86 44 -252 96
-368 117 -125 23 -349 33 -471 21z M194 2596 c-2 -6 -3 -567 -2 -1246 l3
-1235 280 0 280 0 3 748 c1 411 5 747 10 746 4 0 131 -152 282 -337 302 -369
523 -638 784 -955 l171 -207 235 2 235 3 0 1245 0 1245 -280 0 -280 0 -5 -754
-5 -754 -175 214 c-96 118 -191 234 -211 259 -20 25 -104 126 -185 226 -82 99
-266 323 -408 497 l-259 317 -234 -1 c-165 -1 -236 -5 -239 -13z M5017 2443
c-4 -3 -7 -98 -7 -210 l0 -203 -424 0 -425 0 -53 -69 c-29 -38 -123 -164 -208
-279 -85 -116 -157 -211 -160 -211 -3 0 -57 72 -120 161 -63 88 -154 214 -203
279 l-87 119 -299 0 c-181 0 -302 -4 -306 -10 -3 -5 152 -219 345 -476 308
-411 349 -470 338 -485 -13 -18 -428 -563 -608 -797 -55 -72 -98 -137 -95
-142 4 -6 113 -10 295 -10 l289 0 30 37 c17 21 99 130 182 243 180 244 222
300 225 300 2 0 96 -130 210 -290 l208 -290 306 0 c169 0 309 3 312 6 5 5
-112 163 -542 730 -91 119 -169 223 -173 230 -5 9 65 110 218 311 124 164 274
362 333 439 l107 142 5 -182 5 -181 147 -3 147 -3 3 -502 c4 -549 4 -548 67
-682 82 -175 254 -290 491 -326 105 -16 305 -6 404 21 74 20 189 70 199 87 7
11 -138 388 -149 388 -5 0 -27 -10 -49 -21 -42 -23 -127 -44 -174 -44 -51 0
-126 29 -160 62 -72 70 -71 61 -71 565 l0 453 233 2 232 3 0 210 0 210 -232 3
-233 2 -2 208 -3 207 -271 3 c-149 1 -273 -1 -277 -5z M9789 2050 c-354 -33
-663 -240 -808 -543 -124 -256 -128 -594 -12 -851 106 -235 321 -422 585 -511
127 -43 205 -56 371 -61 183 -7 306 8 445 52 142 44 278 124 364 213 l39 40
-99 108 c-54 59 -121 131 -149 161 l-50 53 -41 -34 c-113 -98 -261 -147 -438
-147 -187 0 -320 46 -421 146 -51 50 -106 145 -121 206 l-6 28 723 2 724 3 9
70 c18 144 -21 383 -85 523 -73 159 -217 319 -365 406 -185 108 -428 158 -665
136z m256 -434 c132 -35 235 -120 291 -241 18 -38 35 -85 39 -102 l7 -33 -472
0 -472 0 7 33 c3 17 22 66 42 107 57 117 157 200 284 234 69 19 209 20 274 2z
M12270 2054 c-228 -23 -419 -101 -530 -218 l-35 -37 -5 113 -5 113 -260 0
-260 0 0 -955 0 -955 275 0 275 0 5 550 c5 542 5 551 28 613 70 194 215 292
432 292 175 0 290 -74 352 -229 23 -56 23 -61 28 -641 l5 -585 275 0 275 0 0
645 c0 636 0 646 -22 730 -13 47 -44 128 -69 180 -88 178 -247 302 -457 354
-89 23 -235 37 -307 30z"/>
    <path fill="#ffffff" d="M19029 2752 c-55 -41 -131 -72 -248 -101 -68 -17 -131 -31 -140 -31
-24 0 -75 -55 -68 -74 11 -28 53 -45 126 -52 61 -6 75 -11 88 -31 13 -19 14
-31 5 -61 -6 -20 -18 -71 -27 -112 -9 -41 -25 -112 -36 -157 -10 -46 -28 -122
-39 -170 -12 -49 -32 -133 -45 -188 -34 -146 -104 -450 -121 -525 -26 -114
-32 -141 -74 -320 -23 -96 -55 -231 -71 -300 -15 -69 -44 -191 -63 -272 -50
-208 -52 -225 -31 -248 15 -17 31 -20 105 -20 81 0 88 2 112 28 16 17 32 52
41 92 64 270 91 377 99 393 5 10 18 53 29 95 11 42 26 91 34 107 7 17 24 55
38 86 25 58 55 77 96 64 22 -7 84 -149 166 -380 9 -27 23 -63 30 -80 7 -16 25
-64 41 -105 54 -146 152 -277 232 -311 96 -42 188 -20 277 66 109 105 166 268
189 536 5 52 3 58 -24 84 l-30 29 -29 -28 c-23 -22 -30 -40 -36 -84 -14 -128
-48 -271 -76 -328 -24 -48 -52 -64 -114 -64 -38 0 -47 5 -72 35 -15 18 -43 74
-61 122 -32 84 -105 266 -123 308 -36 82 -89 242 -87 259 2 16 35 37 134 87
72 36 149 79 170 95 22 17 52 38 68 49 36 22 162 146 198 195 59 78 90 159 96
246 4 72 2 88 -18 126 -54 105 -128 148 -254 148 -154 0 -234 -39 -377 -180
-107 -106 -175 -200 -259 -355 -24 -44 -52 -93 -63 -110 -18 -28 -19 -28 -13
-5 4 14 11 48 16 75 5 28 19 86 29 130 36 147 148 623 171 725 5 25 32 137 60
250 27 113 50 214 50 226 0 26 -30 54 -57 54 -11 0 -31 -8 -44 -18z m449 -938
c18 -4 34 -15 41 -30 17 -37 13 -163 -6 -220 -65 -190 -259 -354 -518 -437
-119 -38 -135 -40 -135 -21 0 16 62 145 118 246 41 74 155 241 202 298 51 61
140 131 192 152 48 19 62 21 106 12z M14215 2720 c-168 -27 -284 -92 -394
-219 -111 -128 -159 -271 -147 -444 14 -214 92 -363 352 -672 183 -219 257
-344 299 -512 71 -278 -25 -539 -231 -633 -109 -50 -296 -49 -393 2 -70 37
-88 53 -114 103 -55 105 -73 197 -85 437 -7 124 -11 150 -27 168 -42 46 -101
2 -116 -87 -10 -61 -58 -334 -68 -393 -5 -25 -15 -78 -22 -117 l-13 -73 29
-30 c56 -58 163 -115 265 -142 271 -69 498 -61 659 23 80 41 194 135 251 205
156 193 195 479 98 734 -41 109 -163 298 -303 469 -127 156 -243 327 -269 399
-36 97 -41 131 -41 257 0 124 2 133 31 195 39 82 110 150 185 176 38 13 82 19
149 19 161 0 211 -37 269 -201 29 -80 33 -109 51 -339 10 -120 13 -132 37
-157 33 -34 43 -35 73 -3 25 26 48 119 85 340 8 50 22 121 30 160 26 123 23
142 -37 197 -64 59 -129 91 -240 118 -92 23 -282 34 -363 20z M15268 2413
c-19 -20 -30 -46 -37 -88 -6 -33 -17 -87 -25 -120 -7 -33 -22 -96 -31 -140
-10 -44 -25 -88 -34 -97 -12 -13 -42 -19 -119 -24 -97 -7 -104 -8 -127 -36
-30 -36 -30 -38 -4 -72 19 -25 25 -26 115 -26 83 0 94 -2 94 -17 0 -29 -35
-193 -95 -443 -31 -129 -62 -266 -70 -305 -7 -38 -26 -117 -40 -175 -14 -58
-37 -157 -51 -220 -13 -63 -32 -149 -40 -190 -23 -107 -16 -213 20 -273 32
-56 105 -114 153 -123 125 -24 255 46 366 195 59 80 134 248 169 381 28 107
28 104 6 127 -12 13 -27 23 -33 23 -19 0 -63 -53 -74 -90 -54 -184 -119 -319
-173 -363 -41 -33 -112 -47 -146 -28 -42 23 -39 80 23 341 43 184 82 353 100
435 16 73 42 185 94 410 11 44 25 107 31 140 37 179 25 169 202 173 129 3 145
6 166 24 28 27 28 59 -1 86 -21 20 -34 22 -143 22 -65 0 -125 4 -133 9 -11 7
-9 27 13 117 27 113 52 231 63 297 10 62 -10 74 -120 76 -89 1 -94 0 -119 -26z
M16419 1941 c-171 -61 -387 -243 -514 -432 -27 -41 -57 -83 -66 -94 -22 -27
-116 -207 -140 -270 -11 -27 -23 -59 -28 -70 -64 -146 -111 -387 -111 -569 0
-117 19 -208 60 -285 137 -257 398 -201 655 141 43 56 80 108 83 117 3 8 22
40 43 71 20 30 48 78 62 107 15 28 31 54 36 57 5 3 -4 -45 -20 -107 -35 -132
-47 -281 -30 -353 27 -110 126 -194 229 -194 108 0 179 36 273 137 30 33 69
88 88 123 34 65 42 88 85 250 l23 84 7 -69 c22 -205 105 -360 246 -454 131
-89 289 -94 440 -15 66 35 197 157 255 239 50 70 106 181 124 245 7 25 17 57
23 71 17 48 18 133 1 152 -9 9 -21 17 -28 17 -17 0 -62 -51 -70 -80 -19 -62
-114 -254 -156 -316 -40 -59 -124 -132 -167 -144 -20 -7 -67 -14 -104 -17 -59
-5 -74 -2 -122 21 -115 56 -156 170 -156 429 0 135 18 269 50 392 23 86 29
102 55 175 85 234 228 440 348 502 51 25 128 34 166 18 64 -26 69 -48 98 -425
5 -67 10 -84 31 -107 14 -16 31 -28 38 -28 25 0 63 60 73 117 6 32 19 92 27
133 9 41 20 95 24 120 4 25 15 78 24 119 l16 74 -27 30 c-75 79 -177 111 -323
104 -171 -9 -268 -59 -446 -233 -126 -124 -238 -290 -317 -474 -50 -117 -103
-316 -113 -428 l-7 -73 -22 21 c-12 11 -26 20 -31 20 -25 0 -55 -53 -89 -155
-42 -126 -104 -259 -135 -293 -27 -28 -61 -42 -103 -42 -50 0 -59 12 -64 81
-3 53 5 100 47 274 28 116 56 233 61 260 6 28 26 114 45 193 19 79 43 185 54
235 10 51 28 128 38 172 101 419 95 385 76 406 -32 36 -73 25 -130 -36 -29
-30 -58 -55 -64 -55 -7 0 -35 21 -64 46 -76 70 -114 84 -221 83 -55 -1 -108
-8 -136 -18z m200 -116 c16 -8 39 -31 51 -52 21 -36 22 -46 17 -158 -6 -125
-25 -217 -71 -345 -15 -41 -34 -96 -41 -121 -8 -25 -33 -82 -55 -127 -22 -46
-40 -87 -40 -92 0 -5 -11 -29 -24 -52 -13 -24 -38 -70 -56 -103 -102 -188
-168 -283 -254 -373 -78 -81 -119 -110 -174 -123 -98 -23 -132 31 -132 212 0
201 47 417 151 699 28 73 149 300 206 386 136 201 313 306 422 249z"/>
  </g>
</svg>